<?xml version="1.0" encoding="UTF-8" standalone="no"?>
<!-- Created with Inkscape (http://www.inkscape.org/) -->

<svg
   width="59.971516mm"
   height="59.971516mm"
   viewBox="0 0 59.971516 59.971516"
   version="1.1"
   id="svg1726"
   inkscape:version="1.1.2 (b8e25be833, 2022-02-05)"
   sodipodi:docname="2.svg"
   xmlns:inkscape="http://www.inkscape.org/namespaces/inkscape"
   xmlns:sodipodi="http://sodipodi.sourceforge.net/DTD/sodipodi-0.dtd"
   xmlns="http://www.w3.org/2000/svg"
   xmlns:svg="http://www.w3.org/2000/svg">
  <sodipodi:namedview
     id="namedview1728"
     pagecolor="#505050"
     bordercolor="#eeeeee"
     borderopacity="1"
     inkscape:pageshadow="0"
     inkscape:pageopacity="0"
     inkscape:pagecheckerboard="0"
     inkscape:document-units="mm"
     showgrid="false"
     inkscape:zoom="0.45522587"
     inkscape:cx="125.21257"
     inkscape:cy="99.950383"
     inkscape:window-width="755"
     inkscape:window-height="688"
     inkscape:window-x="-7"
     inkscape:window-y="0"
     inkscape:window-maximized="0"
     inkscape:current-layer="layer1" />
  <defs
     id="defs1723">
    <clipPath
       clipPathUnits="userSpaceOnUse"
       id="clipPath913">
      <path
         d="M 0,800 H 800 V 0 H 0 Z"
         id="path911" />
    </clipPath>
    <clipPath
       clipPathUnits="userSpaceOnUse"
       id="clipPath925">
      <path
         d="m 364.768,253.549 h 120.46 V 122.081 h -120.46 z"
         id="path923" />
    </clipPath>
    <clipPath
       clipPathUnits="userSpaceOnUse"
       id="clipPath941">
      <path
         d="m 315.229,196.81 c 0,-46.943 38.055,-84.999 85,-84.999 v 0 c 46.942,0 84.999,38.056 84.999,84.999 v 0 c 0,46.944 -38.057,84.999 -84.999,84.999 v 0 c -46.945,0 -85,-38.055 -85,-84.999"
         id="path939" />
    </clipPath>
  </defs>
  <g
     inkscape:label="Layer 1"
     inkscape:groupmode="layer"
     id="layer1"
     transform="translate(2.95934,-118.51425)">
    <g
       id="g907"
       style="display:inline"
       transform="matrix(0.35277777,0,0,-0.35277777,-114.1653,217.93002)">
      <g
         id="g909"
         clip-path="url(#clipPath913)">
        <g
           id="g915"
           transform="translate(485.2275,196.8105)">
          <path
             d="m 0,0 c 0,46.943 -38.057,84.998 -84.998,84.998 -46.945,0 -85,-38.055 -85,-84.998 0,-46.943 38.055,-85 85,-85 C -38.057,-85 0,-46.943 0,0"
             style="fill:#13b4be;fill-opacity:1;fill-rule:nonzero;stroke:none"
             id="path917" />
        </g>
        <g
           id="g919">
          <g
             id="g921" />
          <g
             id="g933">
            <g
               clip-path="url(#clipPath925)"
               opacity="0.100006"
               id="g931">
              <g
                 transform="translate(484.8154,205.1484)"
                 id="g929">
                <path
                   d="m 0,0 -44.69,44.691 -5.68,-5.679 -3.358,3.357 -6.395,-6.395 -12.427,12.426 -47.498,-47.498 21.388,-21.387 -3.987,-3.988 58.594,-58.594 C -17.567,-68.671 0.412,-40.604 0.412,-8.338 0.412,-5.523 0.268,-2.744 0,0"
                   style="fill:#000000;fill-opacity:1;fill-rule:nonzero;stroke:none"
                   id="path927" />
              </g>
            </g>
          </g>
        </g>
      </g>
    </g>
    <g
       id="g935"
       style="display:inline"
       transform="matrix(0.35277777,0,0,-0.35277777,-114.1653,217.93002)">
      <g
         id="g937"
         clip-path="url(#clipPath941)">
        <g
           id="g943"
           transform="translate(414.2646,152.9316)">
          <path
             d="M 0,0 -14.315,-40.954 -28.271,0 V 31.613 H 0 Z"
             style="fill:#fee1b9;fill-opacity:1;fill-rule:nonzero;stroke:none"
             id="path945" />
        </g>
        <g
           id="g947"
           transform="translate(399.9492,111.9775)">
          <path
             d="M 0,0 14.315,40.954 V 72.567 H 0 Z"
             style="fill:#ffd9ac;fill-opacity:1;fill-rule:nonzero;stroke:none"
             id="path949" />
        </g>
        <g
           id="g951"
           transform="translate(362.0869,212.6211)">
          <path
             d="M 0,0 C -0.48,4.72 2.089,8.945 5.739,9.438 9.39,9.933 12.737,6.504 13.219,1.786 13.7,-2.935 11.127,-7.158 7.48,-7.653 3.829,-8.146 0.481,-4.718 0,0"
             style="fill:#fee1b9;fill-opacity:1;fill-rule:nonzero;stroke:none"
             id="path953" />
        </g>
        <g
           id="g955"
           transform="translate(430.6465,204.9502)">
          <path
             d="m 0,0 c -3.639,0.406 -6.094,4.57 -5.479,9.3 0.61,4.733 4.054,8.245 7.692,7.843 C 5.849,16.739 8.302,12.577 7.688,7.844 7.078,3.111 3.635,-0.4 0,0"
             style="fill:#ffd9ac;fill-opacity:1;fill-rule:nonzero;stroke:none"
             id="path957" />
        </g>
        <g
           id="g959"
           transform="translate(400.2295,252.333)">
          <path
             d="m 0,0 c 0,0 -30.021,-1.299 -30.021,-17.31 v -32.613 c 0,-6.304 10.192,-24.317 19.383,-25.066 C -6.042,-75.364 0,-75.881 0,-75.881 c 0,0 6.04,0.517 10.638,0.892 9.188,0.749 19.28,18.762 19.28,25.066 v 31.722 C 29.918,-2.19 0,0 0,0"
             style="fill:#fee1b9;fill-opacity:1;fill-rule:nonzero;stroke:none"
             id="path961" />
        </g>
        <g
           id="g963"
           transform="translate(400.2295,252.333)">
          <path
             d="m 0,0 c 0,0 -30.021,-1.299 -30.021,-17.31 v -32.613 c 0,-6.304 10.192,-24.317 19.383,-25.066 C -6.042,-75.364 0,-75.881 0,-75.881 c 0,0 6.04,0.517 10.638,0.892 9.188,0.749 19.28,18.762 19.28,25.066 v 31.722 C 29.918,-2.19 0,0 0,0"
             style="fill:#fee1b9;fill-opacity:1;fill-rule:nonzero;stroke:none"
             id="path965" />
        </g>
        <g
           id="g967"
           transform="translate(430.1475,234.1318)">
          <path
             d="m 0,0 v -31.722 c 0,-6.303 -10.191,-24.317 -19.382,-25.066 -4.596,-0.375 -10.637,-0.892 -10.637,-0.892 V 18.201 C -30.019,18.201 0,16.011 0,0"
             style="fill:#ffd9ac;fill-opacity:1;fill-rule:nonzero;stroke:none"
             id="path969" />
        </g>
        <g
           id="g971"
           transform="translate(400.2295,111.9775)">
          <path
             d="m 0,0 v 50.411 c 0,0 -10.757,2.665 -13.131,11.379 -1.136,4.187 -1.104,3.261 -1.104,-1.049 0,-12.95 -30.503,-7.379 -38.759,-17.386 C -59.498,34.352 -64,0 -64,0 Z"
             style="fill:#fee1b9;fill-opacity:1;fill-rule:nonzero;stroke:none"
             id="path973" />
        </g>
        <g
           id="g975"
           transform="translate(400.1289,111.9775)">
          <path
             d="m 0,0 v 53.05 c 0,0 10.25,0.204 12.219,5.175 0.713,1.799 1.917,6.728 1.917,2.42 0,-12.952 30.6,-7.283 38.856,-17.29 C 59.496,34.352 63.999,0 63.999,0 Z"
             style="fill:#ffd9ac;fill-opacity:1;fill-rule:nonzero;stroke:none"
             id="path977" />
        </g>
        <g
           id="g979"
           transform="translate(382.25,166.792)">
          <path
             d="m 0,0 c 0,0 -29.641,-3.914 -36.175,-12.112 -5.299,-6.645 -8.94,-35.125 -10.641,-42.869 H 17.979 V -4.86 Z"
             style="fill:#d0d4d7;fill-opacity:1;fill-rule:nonzero;stroke:none"
             id="path981" />
        </g>
        <g
           id="g983"
           transform="translate(418.208,166.792)">
          <path
             d="m 0,0 c 0,0 29.806,-4.008 36.341,-12.206 5.299,-6.645 8.775,-35.031 10.475,-42.775 H -17.978 V -4.86 Z"
             style="fill:#b9c7d0;fill-opacity:1;fill-rule:nonzero;stroke:none"
             id="path985" />
        </g>
        <g
           id="g987"
           transform="translate(400.1289,128.4717)">
          <path
             d="m 0,0 0.1,35.309 -18.31,3.75 18.31,-55.72"
             style="fill:#d0d4d7;fill-opacity:1;fill-rule:nonzero;stroke:none"
             id="path989" />
        </g>
        <g
           id="g991"
           transform="translate(402.2979,153.3389)">
          <path
             d="m 0,0 4.139,4.169 -6.207,6.258 -6.207,-6.258 4.138,-4.17 -5.638,-30.494 7.706,-11.033 7.733,11.033 z"
             style="fill:#436b85;fill-opacity:1;fill-rule:nonzero;stroke:none"
             id="path993" />
        </g>
        <g
           id="g995"
           transform="translate(406.4365,157.5078)">
          <path
             d="M 0,0 -6.207,6.258 -6.308,6.157 v -51.712 l 0.1,-0.142 7.733,11.033 -5.664,30.495 z"
             style="fill:#315d76;fill-opacity:1;fill-rule:nonzero;stroke:none"
             id="path997" />
        </g>
        <g
           id="g999"
           transform="translate(400.2285,163.7783)">
          <path
             d="M 0,0 14.691,7.429 22.264,3.014 9.911,-14.624 Z"
             style="fill:#d0d4d7;fill-opacity:1;fill-rule:nonzero;stroke:none"
             id="path1001" />
        </g>
        <g
           id="g1003"
           transform="translate(400.2305,163.7783)">
          <path
             d="M 0,0 -14.691,7.429 -22.267,3.014 -7.343,-14.624 Z"
             style="fill:#ffffff;fill-opacity:1;fill-rule:nonzero;stroke:none"
             id="path1005" />
        </g>
        <g
           id="g1007"
           transform="translate(399.8447,187.1074)">
          <path
             d="M 0,0 C 4.018,0 7.273,2.865 7.273,6.399 H -7.273 C -7.273,2.865 -4.018,0 0,0"
             style="fill:#ffffff;fill-opacity:1;fill-rule:nonzero;stroke:none"
             id="path1009" />
        </g>
        <g
           id="g1011"
           transform="translate(416.9961,210.6768)">
          <path
             d="M 0,0 C 0,1.381 -1.118,2.5 -2.499,2.5 -3.88,2.5 -5,1.381 -5,0 -5,-1.381 -3.88,-2.5 -2.499,-2.5 -1.118,-2.5 0,-1.381 0,0"
             style="fill:#726658;fill-opacity:1;fill-rule:nonzero;stroke:none"
             id="path1013" />
        </g>
        <g
           id="g1015"
           transform="translate(387.9434,211.6748)">
          <path
             d="M 0,0 C 0,1.381 -1.12,2.5 -2.501,2.5 -3.882,2.5 -5,1.381 -5,0 -5,-1.379 -3.882,-2.498 -2.501,-2.498 -1.12,-2.498 0,-1.379 0,0"
             style="fill:#726658;fill-opacity:1;fill-rule:nonzero;stroke:none"
             id="path1017" />
        </g>
        <g
           id="g1019"
           transform="translate(390.5117,216.4287)">
          <path
             d="m 0,0 c -0.153,0 -0.304,0.069 -0.401,0.201 -0.893,1.202 -2.68,1.949 -4.667,1.949 -1.988,0 -3.775,-0.747 -4.667,-1.949 -0.162,-0.222 -0.477,-0.267 -0.7,-0.103 -0.22,0.164 -0.267,0.478 -0.103,0.699 1.076,1.451 3.172,2.353 5.47,2.353 2.297,0 4.393,-0.902 5.469,-2.353 C 0.565,0.576 0.519,0.262 0.298,0.098 0.208,0.031 0.104,0 0,0"
             style="fill:#61402f;fill-opacity:1;fill-rule:nonzero;stroke:none"
             id="path1021" />
        </g>
        <g
           id="g1023"
           transform="translate(419.624,216.4287)">
          <path
             d="m 0,0 c -0.152,0 -0.304,0.069 -0.401,0.201 -0.892,1.202 -2.68,1.949 -4.667,1.949 -1.987,0 -3.775,-0.747 -4.666,-1.949 -0.163,-0.222 -0.477,-0.267 -0.7,-0.103 -0.221,0.164 -0.267,0.478 -0.103,0.699 1.076,1.451 3.172,2.353 5.469,2.353 2.297,0 4.393,-0.902 5.469,-2.353 C 0.566,0.576 0.52,0.262 0.298,0.098 0.209,0.031 0.104,0 0,0"
             style="fill:#61402f;fill-opacity:1;fill-rule:nonzero;stroke:none"
             id="path1025" />
        </g>
        <g
           id="g1027"
           transform="translate(367.3047,215.667)">
          <path
             d="m 0,0 h 2.869 l 3.825,26.66 c 0,0 -8.726,3.415 -10.518,-7.051 C -5.618,9.144 0,0 0,0"
             style="fill:#61402f;fill-opacity:1;fill-rule:nonzero;stroke:none"
             id="path1029" />
        </g>
        <g
           id="g1031"
           transform="translate(431.5635,215.667)">
          <path
             d="m 0,0 h -2.868 l -3.825,26.66 c 0,0 8.726,3.415 10.517,-7.051 C 5.619,9.144 0,0 0,0"
             style="fill:#61402f;fill-opacity:1;fill-rule:nonzero;stroke:none"
             id="path1033" />
        </g>
        <g
           id="g1035"
           transform="translate(370.6914,239.6631)">
          <path
             d="m 0,0 c 0,0 12.221,-9.486 29.141,-9.486 16.922,0 32.916,5.24 40.186,19.495 C 68.931,9.887 56.367,12.18 40.632,24.181 20.799,39.308 -16.391,16.814 0,0"
             style="fill:#61402f;fill-opacity:1;fill-rule:nonzero;stroke:none"
             id="path1037" />
        </g>
      </g>
    </g>
  </g>
</svg>
