<?xml version="1.0" encoding="UTF-8" standalone="no"?>
<!-- Created with Inkscape (http://www.inkscape.org/) -->

<svg
   width="59.972221mm"
   height="59.972221mm"
   viewBox="0 0 59.972222 59.972222"
   version="1.1"
   id="svg1726"
   inkscape:version="1.1.2 (b8e25be833, 2022-02-05)"
   sodipodi:docname="3.svg"
   xmlns:inkscape="http://www.inkscape.org/namespaces/inkscape"
   xmlns:sodipodi="http://sodipodi.sourceforge.net/DTD/sodipodi-0.dtd"
   xmlns="http://www.w3.org/2000/svg"
   xmlns:svg="http://www.w3.org/2000/svg">
  <sodipodi:namedview
     id="namedview1728"
     pagecolor="#505050"
     bordercolor="#eeeeee"
     borderopacity="1"
     inkscape:pageshadow="0"
     inkscape:pageopacity="0"
     inkscape:pagecheckerboard="0"
     inkscape:document-units="mm"
     showgrid="false"
     inkscape:zoom="0.45522587"
     inkscape:cx="113.13065"
     inkscape:cy="113.13065"
     inkscape:window-width="780"
     inkscape:window-height="688"
     inkscape:window-x="-7"
     inkscape:window-y="0"
     inkscape:window-maximized="0"
     inkscape:current-layer="layer1" />
  <defs
     id="defs1723">
    <clipPath
       clipPathUnits="userSpaceOnUse"
       id="clipPath913">
      <path
         d="M 0,800 H 800 V 0 H 0 Z"
         id="path911" />
    </clipPath>
    <clipPath
       clipPathUnits="userSpaceOnUse"
       id="clipPath925">
      <path
         d="m 364.768,253.549 h 120.46 V 122.081 h -120.46 z"
         id="path923" />
    </clipPath>
    <clipPath
       clipPathUnits="userSpaceOnUse"
       id="clipPath941">
      <path
         d="m 315.229,196.81 c 0,-46.943 38.055,-84.999 85,-84.999 v 0 c 46.942,0 84.999,38.056 84.999,84.999 v 0 c 0,46.944 -38.057,84.999 -84.999,84.999 v 0 c -46.945,0 -85,-38.055 -85,-84.999"
         id="path939" />
    </clipPath>
    <clipPath
       clipPathUnits="userSpaceOnUse"
       id="clipPath613">
      <path
         d="m 315.564,422.779 c 0,-46.944 38.055,-84.998 84.998,-84.998 v 0 c 46.946,0 85.001,38.054 85.001,84.998 v 0 c 0,46.945 -38.055,85.001 -85.001,85.001 v 0 c -46.943,0 -84.998,-38.056 -84.998,-85.001"
         id="path611" />
    </clipPath>
    <clipPath
       clipPathUnits="userSpaceOnUse"
       id="clipPath585">
      <path
         d="M 0,800 H 800 V 0 H 0 Z"
         id="path583" />
    </clipPath>
    <clipPath
       clipPathUnits="userSpaceOnUse"
       id="clipPath597">
      <path
         d="M 354.806,491.671 H 485.562 V 346.516 H 354.806 Z"
         id="path595" />
    </clipPath>
    <clipPath
       clipPathUnits="userSpaceOnUse"
       id="clipPath173">
      <path
         d="m 316.229,662.507 c 0,-46.945 38.057,-85 85.001,-85 v 0 c 46.945,0 84.999,38.055 84.999,85 v 0 c 0,46.944 -38.054,85 -84.999,85 v 0 c -46.944,0 -85.001,-38.056 -85.001,-85"
         id="path171" />
    </clipPath>
    <clipPath
       clipPathUnits="userSpaceOnUse"
       id="clipPath145">
      <path
         d="M 0,800 H 800 V 0 H 0 Z"
         id="path143" />
    </clipPath>
    <clipPath
       clipPathUnits="userSpaceOnUse"
       id="clipPath157">
      <path
         d="M 368.14,742.643 H 486.229 V 587.214 H 368.14 Z"
         id="path155" />
    </clipPath>
    <clipPath
       clipPathUnits="userSpaceOnUse"
       id="clipPath501">
      <path
         d="m 67.769,422.781 c 0,-46.943 38.057,-85 85.001,-85 v 0 c 46.944,0 84.999,38.057 84.999,85 v 0 c 0,46.944 -38.055,85.001 -84.999,85.001 v 0 c -46.944,0 -85.001,-38.057 -85.001,-85.001"
         id="path499" />
    </clipPath>
    <clipPath
       clipPathUnits="userSpaceOnUse"
       id="clipPath473">
      <path
         d="M 0,800 H 800 V 0 H 0 Z"
         id="path471" />
    </clipPath>
    <clipPath
       clipPathUnits="userSpaceOnUse"
       id="clipPath485">
      <path
         d="M 131.672,477.72 H 237.677 V 339.237 H 131.672 Z"
         id="path483" />
    </clipPath>
    <clipPath
       clipPathUnits="userSpaceOnUse"
       id="clipPath769">
      <path
         d="M 0,800 H 800 V 0 H 0 Z"
         id="path767" />
    </clipPath>
    <clipPath
       clipPathUnits="userSpaceOnUse"
       id="clipPath781">
      <path
         d="M 609.57,249.742 H 730.757 V 120.639 H 609.57 Z"
         id="path779" />
    </clipPath>
    <clipPath
       clipPathUnits="userSpaceOnUse"
       id="clipPath797">
      <path
         d="m 561.069,196.808 c 0,-46.941 38.057,-84.996 85,-84.996 v 0 c 46.944,0 85,38.055 85,84.996 v 0 c 0,46.946 -38.056,85.001 -85,85.001 v 0 c -46.943,0 -85,-38.055 -85,-85.001"
         id="path795" />
    </clipPath>
    <clipPath
       clipPathUnits="userSpaceOnUse"
       id="clipPath265">
      <path
         d="M 0,800 H 800 V 0 H 0 Z"
         id="path263" />
    </clipPath>
    <clipPath
       clipPathUnits="userSpaceOnUse"
       id="clipPath277">
      <path
         d="M 119.117,715.275 H 237.67 V 582.856 H 119.117 Z"
         id="path275" />
    </clipPath>
    <clipPath
       clipPathUnits="userSpaceOnUse"
       id="clipPath293">
      <path
         d="m 67.767,662.507 c 0,-46.945 38.057,-85 85.001,-85 v 0 c 46.945,0 84.999,38.055 84.999,85 v 0 c 0,46.944 -38.054,85 -84.999,85 v 0 c -46.944,0 -85.001,-38.056 -85.001,-85"
         id="path291" />
    </clipPath>
  </defs>
  <g
     inkscape:label="Layer 1"
     inkscape:groupmode="layer"
     id="layer1"
     transform="translate(0.02990819,-114.75956)">
    <g
       id="g259"
       style="display:inline"
       transform="matrix(0.35277777,0,0,-0.35277777,-23.936811,378.46334)">
      <g
         id="g261"
         clip-path="url(#clipPath265)">
        <g
           id="g267"
           transform="translate(237.7676,662.5068)">
          <path
             d="m 0,0 c 0,46.944 -38.055,85 -85,85 -46.943,0 -85,-38.056 -85,-85 0,-46.944 38.057,-85 85,-85 46.945,0 85,38.056 85,85"
             style="fill:#f15c32;fill-opacity:1;fill-rule:nonzero;stroke:none"
             id="path269" />
        </g>
        <g
           id="g271">
          <g
             id="g273" />
          <g
             id="g285">
            <g
               clip-path="url(#clipPath277)"
               opacity="0.100006"
               id="g283">
              <g
                 transform="translate(181.3076,715.0254)"
                 id="g281">
                <path
                   d="m 0,0 -7.221,-7.221 -7.471,7.471 -47.498,-47.498 19.125,-19.125 -3.75,-3.75 11.012,-11.013 -7.028,-7.029 44.004,-44.004 c 31.148,11.625 53.639,40.988 55.19,75.806 z"
                   style="fill:#000000;fill-opacity:1;fill-rule:nonzero;stroke:none"
                   id="path279" />
              </g>
            </g>
          </g>
        </g>
      </g>
    </g>
    <g
       id="g287"
       style="display:inline"
       transform="matrix(0.35277777,0,0,-0.35277777,-23.936811,378.46334)">
      <g
         id="g289"
         clip-path="url(#clipPath293)">
        <g
           id="g295"
           transform="translate(116.4551,673.5498)">
          <path
             d="M 0,0 C -0.461,4.528 2.006,8.583 5.508,9.055 9.01,9.529 12.221,6.241 12.684,1.714 13.145,-2.815 10.676,-6.868 7.178,-7.343 3.674,-7.816 0.463,-4.527 0,0"
             style="fill:#fee1b9;fill-opacity:1;fill-rule:nonzero;stroke:none"
             id="path297" />
        </g>
        <g
           id="g299"
           transform="translate(181.5781,666.1914)">
          <path
             d="m 0,0 c -3.49,0.389 -5.846,4.384 -5.256,8.922 0.586,4.541 3.891,7.911 7.381,7.525 C 5.613,16.06 7.967,12.066 7.379,7.524 6.793,2.984 3.488,-0.386 0,0"
             style="fill:#ffd9ac;fill-opacity:1;fill-rule:nonzero;stroke:none"
             id="path301" />
        </g>
        <g
           id="g303"
           transform="translate(153.0508,710.0693)">
          <path
             d="m 0,0 c 0,0 -28.803,-3.602 -28.803,-18.963 v -26.833 c 0,-6.048 9.78,-23.331 18.598,-24.05 C -5.797,-70.206 0,-70.701 0,-70.701 c 0,0 5.797,0.495 10.207,0.855 8.816,0.719 18.596,18.002 18.596,24.05 v 26.833 C 28.803,-3.602 0,0 0,0"
             style="fill:#fee1b9;fill-opacity:1;fill-rule:nonzero;stroke:none"
             id="path305" />
        </g>
        <g
           id="g307"
           transform="translate(181.7578,691.1064)">
          <path
             d="m 0,0 v -26.833 c 0,-6.048 -9.779,-23.331 -18.598,-24.05 -4.41,-0.36 -10.205,-0.855 -10.205,-0.855 V 18.963 C -28.803,18.963 0,15.361 0,0"
             style="fill:#ffd9ac;fill-opacity:1;fill-rule:nonzero;stroke:none"
             id="path309" />
        </g>
        <g
           id="g311"
           transform="translate(152.7676,649.0659)">
          <path
             d="M 0,0 C 4.017,0 7.274,2.865 7.274,6.399 H -7.274 C -7.274,2.865 -4.017,0 0,0"
             style="fill:#ffffff;fill-opacity:1;fill-rule:nonzero;stroke:none"
             id="path313" />
        </g>
        <g
           id="g315"
           transform="translate(169.9189,672.6348)">
          <path
             d="M 0,0 C 0,1.381 -1.119,2.5 -2.499,2.5 -3.88,2.5 -5,1.381 -5,0 -5,-1.38 -3.88,-2.499 -2.499,-2.499 -1.119,-2.499 0,-1.38 0,0"
             style="fill:#726658;fill-opacity:1;fill-rule:nonzero;stroke:none"
             id="path317" />
        </g>
        <g
           id="g319"
           transform="translate(140.8662,673.6338)">
          <path
             d="M 0,0 C 0,1.381 -1.12,2.5 -2.501,2.5 -3.881,2.5 -5,1.381 -5,0 -5,-1.38 -3.881,-2.499 -2.501,-2.499 -1.12,-2.499 0,-1.38 0,0"
             style="fill:#726658;fill-opacity:1;fill-rule:nonzero;stroke:none"
             id="path321" />
        </g>
        <g
           id="g323"
           transform="translate(214.3594,577.5068)">
          <path
             d="m 0,0 c 0,0 -4.32,32.958 -10.561,41.599 -7.919,9.6 -37.281,4.161 -37.281,16.587 0,0.038 -0.002,0.063 -0.002,0.1 V 69.627 H -74.967 V 58.152 C -75.178,45.896 -104.73,51.165 -112.623,41.599 -118.863,32.958 -123.184,0 -123.184,0 Z"
             style="fill:#fee1b9;fill-opacity:1;fill-rule:nonzero;stroke:none"
             id="path325" />
        </g>
        <g
           id="g327"
           transform="translate(152.8262,647.1338)">
          <path
             d="m 0,0 v -69.627 h 61.533 c 0,0 -4.32,32.958 -10.56,41.599 -7.92,9.6 -37.282,4.161 -37.282,16.587 0,0.038 -0.002,0.063 -0.002,0.1 V 0 Z"
             style="fill:#ffd9ac;fill-opacity:1;fill-rule:nonzero;stroke:none"
             id="path329" />
        </g>
        <g
           id="g331"
           transform="translate(203.7988,619.1055)">
          <path
             d="m 0,0 c -7.711,9.348 -35.736,4.444 -37.209,15.647 -3.834,-1.822 -8.543,-2.899 -13.637,-2.899 -5.099,0 -9.812,1.08 -13.646,2.905 C -66.131,4.565 -94.371,9.321 -102.063,0 c -6.24,-8.641 -10.56,-41.599 -10.56,-41.599 H 10.561 C 10.561,-41.599 6.24,-8.641 0,0"
             style="fill:#7bd2e5;fill-opacity:1;fill-rule:nonzero;stroke:none"
             id="path333" />
        </g>
        <g
           id="g335"
           transform="translate(166.5898,634.7529)">
          <path
             d="m 0,0 c -3.834,-1.822 -8.543,-2.899 -13.637,-2.899 -0.043,0 -0.084,0.003 -0.127,0.003 v -54.35 H 47.77 c 0,0 -4.321,32.958 -10.561,41.599 C 29.498,-6.3 1.473,-11.203 0,0"
             style="fill:#75ccdb;fill-opacity:1;fill-rule:nonzero;stroke:none"
             id="path337" />
        </g>
        <g
           id="g339"
           transform="translate(177.0723,679.5337)">
          <path
             d="m 0,0 v 16.633 c 0,0 -11.643,6.098 -24.117,5.822 v 23.84 c 0,0 32.101,-3.881 32.101,-19.128 C 7.984,11.92 5.545,2.772 5.545,2.772 5.545,2.772 1.662,2.772 0,0"
             style="fill:#891400;fill-opacity:1;fill-rule:nonzero;stroke:none"
             id="path341" />
        </g>
        <g
           id="g343"
           transform="translate(128.8379,679.5337)">
          <path
             d="m 0,0 v 16.633 c 0,0 11.643,6.098 24.117,5.822 v 23.84 c 0,0 -31.23,-3.881 -31.23,-19.128 0,-15.247 1.568,-24.395 1.568,-24.395 0,0 3.881,0 5.545,-2.772"
             style="fill:#ba4830;fill-opacity:1;fill-rule:nonzero;stroke:none"
             id="path345" />
        </g>
        <g
           id="g347"
           transform="translate(143.4346,678.3867)">
          <path
             d="m 0,0 c -0.153,0 -0.304,0.07 -0.402,0.202 -0.891,1.202 -2.68,1.948 -4.666,1.948 -1.987,0 -3.775,-0.746 -4.667,-1.948 -0.163,-0.222 -0.477,-0.268 -0.699,-0.103 -0.222,0.164 -0.268,0.477 -0.104,0.699 1.077,1.451 3.172,2.352 5.47,2.352 2.297,0 4.393,-0.901 5.469,-2.352 C 0.565,0.576 0.519,0.263 0.297,0.099 0.208,0.032 0.104,0 0,0"
             style="fill:#891400;fill-opacity:1;fill-rule:nonzero;stroke:none"
             id="path349" />
        </g>
        <g
           id="g351"
           transform="translate(172.5474,678.3867)">
          <path
             d="m 0,0 c -0.153,0 -0.304,0.07 -0.402,0.202 -0.891,1.202 -2.68,1.948 -4.666,1.948 -1.987,0 -3.775,-0.746 -4.667,-1.948 -0.163,-0.222 -0.477,-0.268 -0.699,-0.103 -0.222,0.164 -0.268,0.477 -0.104,0.699 1.077,1.451 3.172,2.352 5.47,2.352 2.297,0 4.393,-0.901 5.469,-2.352 C 0.565,0.576 0.519,0.263 0.297,0.099 0.208,0.032 0.104,0 0,0"
             style="fill:#891400;fill-opacity:1;fill-rule:nonzero;stroke:none"
             id="path353" />
        </g>
      </g>
    </g>
  </g>
</svg>
